<svg width="1600" height="500" viewBox="0 0 1600 500" xmlns="http://www.w3.org/2000/svg">
  <rect x="40" y="220" width="70" height="280" fill="#C9A15A" />
  <rect x="130" y="160" width="50" height="340" fill="#C9A15A" />
  <rect x="200" y="260" width="90" height="240" fill="#C9A15A" />
  <rect x="310" y="120" width="60" height="380" fill="#C9A15A" />
  <rect x="390" y="200" width="40" height="300" fill="#C9A15A" />
  <rect x="450" y="80" width="70" height="420" fill="#C9A15A" />
  <rect x="540" y="240" width="100" height="260" fill="#C9A15A" />
  <rect x="660" y="180" width="55" height="320" fill="#C9A15A" />
  <rect x="730" y="60" width="65" height="440" fill="#C9A15A" />
  <rect x="810" y="220" width="80" height="280" fill="#C9A15A" />
  <rect x="910" y="140" width="50" height="360" fill="#C9A15A" />
  <rect x="980" y="260" width="90" height="240" fill="#C9A15A" />
  <rect x="1090" y="100" width="60" height="400" fill="#C9A15A" />
  <rect x="1170" y="200" width="45" height="300" fill="#C9A15A" />
  <rect x="1230" y="160" width="75" height="340" fill="#C9A15A" />
  <rect x="1320" y="240" width="55" height="260" fill="#C9A15A" />
  <rect x="1390" y="120" width="65" height="380" fill="#C9A15A" />
  <rect x="1470" y="220" width="80" height="280" fill="#C9A15A" />
</svg>
